<svg width="28" height="31" viewBox="0 0 28 31" fill="none" xmlns="http://www.w3.org/2000/svg">
<path d="M4.66667 31C3.37037 31 2.26852 30.5479 1.36111 29.6437C0.453704 28.7396 0 27.6417 0 26.35V21.7H4.66667V0H28V26.35C28 27.6417 27.5463 28.7396 26.6389 29.6437C25.7315 30.5479 24.6296 31 23.3333 31H4.66667ZM23.3333 27.9C23.7741 27.9 24.1438 27.7512 24.4424 27.4536C24.7411 27.156 24.8899 26.7881 24.8889 26.35V3.1H7.77778V21.7H21.7778V26.35C21.7778 26.7892 21.9271 27.1575 22.2258 27.4551C22.5244 27.7527 22.8936 27.901 23.3333 27.9ZM9.33333 10.85V7.75H23.3333V10.85H9.33333ZM9.33333 15.5V12.4H23.3333V15.5H9.33333ZM4.66667 27.9H18.6667V24.8H3.11111V26.35C3.11111 26.7892 3.26044 27.1575 3.55911 27.4551C3.85571 27.7507 4.22185 27.899 4.65754 27.9H4.66667Z" fill="white"/>
<path d="M4.66667 31C3.37037 31 2.26852 30.5479 1.36111 29.6437C0.453704 28.7396 0 27.6417 0 26.35V21.7H4.66667V0H28V26.35C28 27.6417 27.5463 28.7396 26.6389 29.6437C25.7315 30.5479 24.6296 31 23.3333 31H4.66667ZM23.3333 27.9C23.7741 27.9 24.1438 27.7512 24.4424 27.4536C24.7411 27.156 24.8899 26.7881 24.8889 26.35V3.1H7.77778V21.7H21.7778V26.35C21.7778 26.7892 21.9271 27.1575 22.2258 27.4551C22.5244 27.7527 22.8936 27.901 23.3333 27.9ZM9.33333 10.85V7.75H23.3333V10.85H9.33333ZM9.33333 15.5V12.4H23.3333V15.5H9.33333ZM4.66667 27.9H18.6667V24.8H3.11111V26.35C3.11111 26.7892 3.26044 27.1575 3.55911 27.4551C3.85571 27.7507 4.22185 27.899 4.65754 27.9H4.66667Z" stroke="white"/>
</svg>
