<svg width="35" height="41" viewBox="0 0 35 41" fill="none" xmlns="http://www.w3.org/2000/svg">
<path d="M25.6905 11.0963V8.83945C25.6905 8.63257 25.523 8.4633 25.3182 8.4633H7.44653C7.24175 8.4633 7.07421 8.63257 7.07421 8.83945V11.0963C7.07421 11.3032 7.24175 11.4725 7.44653 11.4725H25.3182C25.523 11.4725 25.6905 11.3032 25.6905 11.0963ZM7.44653 15.2339C7.24175 15.2339 7.07421 15.4032 7.07421 15.6101V17.867C7.07421 18.0739 7.24175 18.2431 7.44653 18.2431H16.01C16.2148 18.2431 16.3824 18.0739 16.3824 17.867V15.6101C16.3824 15.4032 16.2148 15.2339 16.01 15.2339H7.44653ZM14.1484 36.4862H3.35094V3.38532H29.4138V19.5596C29.4138 19.7665 29.5814 19.9358 29.7861 19.9358H32.3924C32.5972 19.9358 32.7647 19.7665 32.7647 19.5596V1.50459C32.7647 0.672362 32.0992 0 31.2754 0H1.48931C0.665534 0 0 0.672362 0 1.50459V38.367C0 39.1992 0.665534 39.8716 1.48931 39.8716H14.1484C14.3532 39.8716 14.5207 39.7023 14.5207 39.4954V36.8624C14.5207 36.6555 14.3532 36.4862 14.1484 36.4862ZM34.8917 38.9077L30.5494 34.5209C31.5873 33.1338 32.2063 31.4036 32.2063 29.5275C32.2063 24.9573 28.5388 21.2523 24.0151 21.2523C19.4913 21.2523 15.8239 24.9573 15.8239 29.5275C15.8239 34.0977 19.4913 37.8028 24.0151 37.8028C25.6812 37.8028 27.2264 37.2997 28.5202 36.4392L32.9276 40.8919C33.0021 40.9671 33.0952 41 33.1883 41C33.2813 41 33.3791 40.9624 33.4489 40.8919L34.8917 39.4343C34.926 39.3998 34.9532 39.3587 34.9718 39.3136C34.9904 39.2684 35 39.2199 35 39.171C35 39.1221 34.9904 39.0736 34.9718 39.0284C34.9532 38.9832 34.926 38.9422 34.8917 38.9077ZM24.0151 34.7936C21.1342 34.7936 18.8025 32.438 18.8025 29.5275C18.8025 26.6171 21.1342 24.2615 24.0151 24.2615C26.8959 24.2615 29.2276 26.6171 29.2276 29.5275C29.2276 32.438 26.8959 34.7936 24.0151 34.7936Z" fill="white"/>
</svg>
