<svg width="50" height="42" viewBox="0 0 50 42" fill="none" xmlns="http://www.w3.org/2000/svg">
<path d="M10.9042 12.033C12.4064 9.63385 14.487 7.65726 16.9518 6.28757C19.4166 4.91788 22.1854 4.19969 25 4.2C27.8149 4.19934 30.5841 4.91735 33.0493 6.28706C35.5146 7.65677 37.5955 9.63355 39.0979 12.033L42.6188 9.786C40.7404 6.78818 38.1396 4.31858 35.0588 2.60741C31.978 0.896249 28.5175 -0.000763637 25 0C21.4828 -0.000409065 18.0228 0.896772 14.9424 2.60792C11.862 4.31907 9.26151 6.78848 7.38333 9.786L10.9042 12.033ZM25 37.8C22.1854 37.8003 19.4166 37.0821 16.9518 35.7124C14.487 34.3427 12.4064 32.3661 10.9042 29.967L7.38333 32.214C9.26151 35.2115 11.862 37.6809 14.9424 39.3921C18.0228 41.1032 21.4828 42.0004 25 42C28.5175 42.0008 31.978 41.1037 35.0588 39.3926C38.1396 37.6814 40.7404 35.2118 42.6188 32.214L39.0979 29.967C37.5955 32.3665 35.5146 34.3432 33.0493 35.7129C30.5841 37.0826 27.8149 37.8007 25 37.8ZM25 12.6C25.5525 12.6 26.0824 12.8212 26.4731 13.2151C26.8638 13.6089 27.0833 14.143 27.0833 14.7C27.0833 15.257 26.8638 15.7911 26.4731 16.1849C26.0824 16.5787 25.5525 16.8 25 16.8C24.4475 16.8 23.9176 16.5787 23.5269 16.1849C23.1362 15.7911 22.9167 15.257 22.9167 14.7C22.9167 14.143 23.1362 13.6089 23.5269 13.2151C23.9176 12.8212 24.4475 12.6 25 12.6ZM25 21C26.6576 21 28.2473 20.3363 29.4194 19.1548C30.5915 17.9733 31.25 16.3709 31.25 14.7C31.25 13.0291 30.5915 11.4267 29.4194 10.2452C28.2473 9.06375 26.6576 8.4 25 8.4C23.3424 8.4 21.7527 9.06375 20.5806 10.2452C19.4085 11.4267 18.75 13.0291 18.75 14.7C18.75 16.3709 19.4085 17.9733 20.5806 19.1548C21.7527 20.3363 23.3424 21 25 21ZM25 27.3C23.8949 27.3 22.8351 27.7425 22.0537 28.5302C21.2723 29.3178 20.8333 30.3861 20.8333 31.5H16.6667C16.6667 29.2722 17.5446 27.1356 19.1074 25.5603C20.6702 23.985 22.7899 23.1 25 23.1C27.2101 23.1 29.3298 23.985 30.8926 25.5603C32.4554 27.1356 33.3333 29.2722 33.3333 31.5H29.1667C29.1667 30.3861 28.7277 29.3178 27.9463 28.5302C27.1649 27.7425 26.1051 27.3 25 27.3ZM6.25 18.9C5.69747 18.9 5.16756 19.1212 4.77686 19.5151C4.38616 19.9089 4.16667 20.443 4.16667 21C4.16667 21.557 4.38616 22.0911 4.77686 22.4849C5.16756 22.8787 5.69747 23.1 6.25 23.1C6.80253 23.1 7.33244 22.8787 7.72314 22.4849C8.11384 22.0911 8.33333 21.557 8.33333 21C8.33333 20.443 8.11384 19.9089 7.72314 19.5151C7.33244 19.1212 6.80253 18.9 6.25 18.9ZM0 21C0 19.3291 0.65848 17.7267 1.83058 16.5452C3.00268 15.3637 4.5924 14.7 6.25 14.7C7.9076 14.7 9.49731 15.3637 10.6694 16.5452C11.8415 17.7267 12.5 19.3291 12.5 21C12.5 22.6709 11.8415 24.2733 10.6694 25.4548C9.49731 26.6363 7.9076 27.3 6.25 27.3C4.5924 27.3 3.00268 26.6363 1.83058 25.4548C0.65848 24.2733 0 22.6709 0 21ZM41.6667 21C41.6667 20.443 41.8862 19.9089 42.2769 19.5151C42.6676 19.1212 43.1975 18.9 43.75 18.9C44.3025 18.9 44.8324 19.1212 45.2231 19.5151C45.6138 19.9089 45.8333 20.443 45.8333 21C45.8333 21.557 45.6138 22.0911 45.2231 22.4849C44.8324 22.8787 44.3025 23.1 43.75 23.1C43.1975 23.1 42.6676 22.8787 42.2769 22.4849C41.8862 22.0911 41.6667 21.557 41.6667 21ZM43.75 14.7C42.0924 14.7 40.5027 15.3637 39.3306 16.5452C38.1585 17.7267 37.5 19.3291 37.5 21C37.5 22.6709 38.1585 24.2733 39.3306 25.4548C40.5027 26.6363 42.0924 27.3 43.75 27.3C45.4076 27.3 46.9973 26.6363 48.1694 25.4548C49.3415 24.2733 50 22.6709 50 21C50 19.3291 49.3415 17.7267 48.1694 16.5452C46.9973 15.3637 45.4076 14.7 43.75 14.7Z" fill="white"/>
<path d="M10.9042 12.033C12.4064 9.63385 14.487 7.65726 16.9518 6.28757C19.4166 4.91788 22.1854 4.19969 25 4.2C27.8149 4.19934 30.5841 4.91735 33.0493 6.28706C35.5146 7.65677 37.5955 9.63355 39.0979 12.033L42.6188 9.786C40.7404 6.78818 38.1396 4.31858 35.0588 2.60741C31.978 0.896249 28.5175 -0.000763637 25 0C21.4828 -0.000409065 18.0228 0.896772 14.9424 2.60792C11.862 4.31907 9.26151 6.78848 7.38333 9.786L10.9042 12.033ZM25 37.8C22.1854 37.8003 19.4166 37.0821 16.9518 35.7124C14.487 34.3427 12.4064 32.3661 10.9042 29.967L7.38333 32.214C9.26151 35.2115 11.862 37.6809 14.9424 39.3921C18.0228 41.1032 21.4828 42.0004 25 42C28.5175 42.0008 31.978 41.1037 35.0588 39.3926C38.1396 37.6814 40.7404 35.2118 42.6188 32.214L39.0979 29.967C37.5955 32.3665 35.5146 34.3432 33.0493 35.7129C30.5841 37.0826 27.8149 37.8007 25 37.8ZM25 12.6C25.5525 12.6 26.0824 12.8212 26.4731 13.2151C26.8638 13.6089 27.0833 14.143 27.0833 14.7C27.0833 15.257 26.8638 15.7911 26.4731 16.1849C26.0824 16.5787 25.5525 16.8 25 16.8C24.4475 16.8 23.9176 16.5787 23.5269 16.1849C23.1362 15.7911 22.9167 15.257 22.9167 14.7C22.9167 14.143 23.1362 13.6089 23.5269 13.2151C23.9176 12.8212 24.4475 12.6 25 12.6ZM25 21C26.6576 21 28.2473 20.3363 29.4194 19.1548C30.5915 17.9733 31.25 16.3709 31.25 14.7C31.25 13.0291 30.5915 11.4267 29.4194 10.2452C28.2473 9.06375 26.6576 8.4 25 8.4C23.3424 8.4 21.7527 9.06375 20.5806 10.2452C19.4085 11.4267 18.75 13.0291 18.75 14.7C18.75 16.3709 19.4085 17.9733 20.5806 19.1548C21.7527 20.3363 23.3424 21 25 21ZM25 27.3C23.8949 27.3 22.8351 27.7425 22.0537 28.5302C21.2723 29.3178 20.8333 30.3861 20.8333 31.5H16.6667C16.6667 29.2722 17.5446 27.1356 19.1074 25.5603C20.6702 23.985 22.7899 23.1 25 23.1C27.2101 23.1 29.3298 23.985 30.8926 25.5603C32.4554 27.1356 33.3333 29.2722 33.3333 31.5H29.1667C29.1667 30.3861 28.7277 29.3178 27.9463 28.5302C27.1649 27.7425 26.1051 27.3 25 27.3ZM6.25 18.9C5.69747 18.9 5.16756 19.1212 4.77686 19.5151C4.38616 19.9089 4.16667 20.443 4.16667 21C4.16667 21.557 4.38616 22.0911 4.77686 22.4849C5.16756 22.8787 5.69747 23.1 6.25 23.1C6.80253 23.1 7.33244 22.8787 7.72314 22.4849C8.11384 22.0911 8.33333 21.557 8.33333 21C8.33333 20.443 8.11384 19.9089 7.72314 19.5151C7.33244 19.1212 6.80253 18.9 6.25 18.9ZM0 21C0 19.3291 0.65848 17.7267 1.83058 16.5452C3.00268 15.3637 4.5924 14.7 6.25 14.7C7.9076 14.7 9.49731 15.3637 10.6694 16.5452C11.8415 17.7267 12.5 19.3291 12.5 21C12.5 22.6709 11.8415 24.2733 10.6694 25.4548C9.49731 26.6363 7.9076 27.3 6.25 27.3C4.5924 27.3 3.00268 26.6363 1.83058 25.4548C0.65848 24.2733 0 22.6709 0 21ZM41.6667 21C41.6667 20.443 41.8862 19.9089 42.2769 19.5151C42.6676 19.1212 43.1975 18.9 43.75 18.9C44.3025 18.9 44.8324 19.1212 45.2231 19.5151C45.6138 19.9089 45.8333 20.443 45.8333 21C45.8333 21.557 45.6138 22.0911 45.2231 22.4849C44.8324 22.8787 44.3025 23.1 43.75 23.1C43.1975 23.1 42.6676 22.8787 42.2769 22.4849C41.8862 22.0911 41.6667 21.557 41.6667 21ZM43.75 14.7C42.0924 14.7 40.5027 15.3637 39.3306 16.5452C38.1585 17.7267 37.5 19.3291 37.5 21C37.5 22.6709 38.1585 24.2733 39.3306 25.4548C40.5027 26.6363 42.0924 27.3 43.75 27.3C45.4076 27.3 46.9973 26.6363 48.1694 25.4548C49.3415 24.2733 50 22.6709 50 21C50 19.3291 49.3415 17.7267 48.1694 16.5452C46.9973 15.3637 45.4076 14.7 43.75 14.7Z" stroke="black"/>
</svg>
