<svg width="40" height="20" viewBox="0 0 40 20" fill="none" xmlns="http://www.w3.org/2000/svg">
<path d="M1.66667 20C1.19444 20 0.798889 19.84 0.48 19.52C0.161111 19.2 0.00111111 18.8044 0 18.3333V17.375C0 16.1805 0.611111 15.2083 1.83333 14.4583C3.05556 13.7083 4.66667 13.3333 6.66667 13.3333C7.02778 13.3333 7.375 13.3406 7.70833 13.355C8.04167 13.3694 8.36111 13.4039 8.66667 13.4583C8.27778 14.0417 7.98611 14.6528 7.79167 15.2917C7.59722 15.9306 7.5 16.5972 7.5 17.2917V20H1.66667ZM11.6667 20C11.1944 20 10.7989 19.84 10.48 19.52C10.1611 19.2 10.0011 18.8044 10 18.3333V17.2917C10 16.4028 10.2433 15.59 10.73 14.8533C11.2167 14.1167 11.9039 13.4711 12.7917 12.9167C13.6794 12.3622 14.7422 11.9456 15.98 11.6667C17.2178 11.3878 18.5578 11.2489 20 11.25C21.4722 11.25 22.8267 11.3889 24.0633 11.6667C25.3 11.9444 26.3622 12.3611 27.25 12.9167C28.1378 13.4722 28.8183 14.1183 29.2917 14.855C29.765 15.5917 30.0011 16.4039 30 17.2917V18.3333C30 18.8055 29.8406 19.2017 29.5217 19.5217C29.2028 19.8417 28.8067 20.0011 28.3333 20H11.6667ZM32.5 20V17.2917C32.5 16.5694 32.41 15.8889 32.23 15.25C32.05 14.6111 31.7789 14.0139 31.4167 13.4583C31.7222 13.4028 32.035 13.3683 32.355 13.355C32.675 13.3417 33.0011 13.3344 33.3333 13.3333C35.3333 13.3333 36.9444 13.7017 38.1667 14.4383C39.3889 15.175 40 16.1539 40 17.375V18.3333C40 18.8055 39.84 19.2017 39.52 19.5217C39.2 19.8417 38.8044 20.0011 38.3333 20H32.5ZM13.5417 16.6667H26.5C26.2222 16.1111 25.4511 15.625 24.1867 15.2083C22.9222 14.7917 21.5267 14.5833 20 14.5833C18.4733 14.5833 17.0778 14.7917 15.8133 15.2083C14.5489 15.625 13.7917 16.1111 13.5417 16.6667ZM6.66667 11.6667C5.75 11.6667 4.96556 11.3406 4.31333 10.6883C3.66111 10.0361 3.33444 9.25111 3.33333 8.33333C3.33333 7.38889 3.66 6.59722 4.31333 5.95833C4.96667 5.31944 5.75111 5 6.66667 5C7.61111 5 8.40278 5.31944 9.04167 5.95833C9.68056 6.59722 10 7.38889 10 8.33333C10 9.25 9.68056 10.035 9.04167 10.6883C8.40278 11.3417 7.61111 11.6678 6.66667 11.6667ZM33.3333 11.6667C32.4167 11.6667 31.6322 11.3406 30.98 10.6883C30.3278 10.0361 30.0011 9.25111 30 8.33333C30 7.38889 30.3267 6.59722 30.98 5.95833C31.6333 5.31944 32.4178 5 33.3333 5C34.2778 5 35.0694 5.31944 35.7083 5.95833C36.3472 6.59722 36.6667 7.38889 36.6667 8.33333C36.6667 9.25 36.3472 10.035 35.7083 10.6883C35.0694 11.3417 34.2778 11.6678 33.3333 11.6667ZM20 10C18.6111 10 17.4306 9.51389 16.4583 8.54166C15.4861 7.56944 15 6.38889 15 5C15 3.58333 15.4861 2.39611 16.4583 1.43833C17.4306 0.480555 18.6111 0.00111111 20 0C21.4167 0 22.6044 0.479444 23.5633 1.43833C24.5222 2.39722 25.0011 3.58444 25 5C25 6.38889 24.5211 7.56944 23.5633 8.54166C22.6056 9.51389 21.4178 10 20 10ZM20 6.66666C20.4722 6.66666 20.8683 6.50666 21.1883 6.18666C21.5083 5.86666 21.6678 5.47111 21.6667 5C21.6656 4.52889 21.5056 4.13333 21.1867 3.81333C20.8678 3.49333 20.4722 3.33333 20 3.33333C19.5278 3.33333 19.1322 3.49333 18.8133 3.81333C18.4944 4.13333 18.3344 4.52889 18.3333 5C18.3322 5.47111 18.4922 5.86722 18.8133 6.18833C19.1344 6.50944 19.53 6.66889 20 6.66666Z" fill="white"/>
</svg>
